inDegrees=yes
name=ik_lifting_orientations
DataType=double
version=3
OpenSimVersion=4.5-2024-01-10-34fd6af
endheader
time	pelvis_tilt	pelvis_list	pelvis_rotation	pelvis_tx	pelvis_ty	pelvis_tz	hip_flexion_r	hip_adduction_r	hip_rotation_r	knee_angle_r	knee_angle_r_beta	ankle_angle_r	subtalar_angle_r	mtp_angle_r	hip_flexion_l	hip_adduction_l	hip_rotation_l	knee_angle_l	knee_angle_l_beta	ankle_angle_l	subtalar_angle_l	mtp_angle_l	lumbar_extension	lumbar_bending	lumbar_rotation	arm_flex_r	arm_add_r	arm_rot_r	elbow_flex_r	pro_sup_r	wrist_flex_r	wrist_dev_r	arm_flex_l	arm_add_l	arm_rot_l	elbow_flex_l	pro_sup_l	wrist_flex_l	wrist_dev_l
2.15	-2.217787982394907	-2.998413813901537	54.83291423259895	0	0.9400000009320483	0	20.8580178294268	-8.533215183692191	0	29.13785299289154	0.5085514716880413	-4.68922071665324	0	0	20.8580178294268	-8.533215183692191	0	29.13785299289154	0.5085514716880413	-4.68922071665324	0	0	4.51671560394142	5.860583738001592	-29.45438504191268	72.17894020293092	-3.946517100806068	51.88429744824636	0.002719672750949132	-49.49042599153022	0	0	0	-3.501222962890796	0	40.67627439084375	-3.125093269006308e-05	0	0
2.16	-1.786122417510817	-3.808323224217369	54.3253965067163	0	0.9400000009320483	0	20.86445577654921	-8.534442574611667	0	29.1457133323165	0.5086886604913311	-4.68955949071706	0	0	20.86445577654921	-8.534442574611667	0	29.1457133323165	0.5086886604913311	-4.68955949071706	0	0	4.296464669995244	6.205334083872187	-29.56372738787248	72.2713520658298	-3.575768828709957	51.34356496259829	0.002625055701248121	-49.47865919481499	0	0	0	-3.502649456173736	0	40.68796793390997	-3.126323893444039e-05	0	0
2.17	-2.041658035119547	-3.161205914777223	53.57482913798426	0	0.9400000009320483	0	20.87135564823928	-8.535754856189294	0	29.15414530978679	0.5088358262606417	-4.68992143623357	0	0	20.87135564823928	-8.535754856189294	0	29.15414530978679	0.5088358262606417	-4.68992143623357	0	0	3.847325661187071	5.691425000617079	-28.78288001368291	72.21030864821618	-4.02522063867945	51.1953407601979	0.002551532837803227	-49.46605288645826	0	0	0	-3.50418114854157	0	40.70049594062384	-3.127644500184414e-05	0	0
2.18	-2.028743075771382	-3.157251381641584	53.57132571811658	0	0.9400000009320483	0	20.87882108487684	-8.537178741589067	0	29.16324953433782	0.5089947249548979	-4.690314357792779	0	0	20.87882108487684	-8.537178741589067	0	29.16324953433782	0.5089947249548979	-4.690314357792779	0	0	4.354792418114267	4.952072856396859	-29.20948872177259	71.36926920069958	-3.912926221738151	50.7437128329738	0.002500328944575219	-49.45240851087706	0	0	0	-3.505833562867255	0	40.71405534283459	-3.129070617382357e-05	0	0
2.19	-1.427352318303471	-2.905112203480822	53.07375278171673	0	0.9400000009320483	0	20.88912105317519	-8.539138555459695	0	29.17582116971051	0.5092141413845116	-4.690854783683153	0	0	20.88912105317519	-8.539138555459695	0	29.17582116971051	0.5092141413845116	-4.690854783683153	0	0	3.750682938431785	5.315884538496647	-28.70769317170503	71.39603609413086	-4.080370276027316	50.45615233117987	0.002459764434736799	-49.4335910949324	0	0	0	-3.508117722066539	0	40.73275584343605	-3.131040779900529e-05	0	0
2.2	-1.424079040082129	-2.905049095254538	53.07602021540202	0	0.9400000009320483	0	20.89718042671686	-8.54067501079262	0	29.18564121810443	0.5093855335616908	-4.691278562473792	0	0	20.89718042671686	-8.54067501079262	0	29.18564121810443	0.5093855335616908	-4.691278562473792	0	0	3.172084740407591	4.799412679630964	-29.29789886410706	71.7014160025538	-3.579066146818776	49.85582636484011	0.002433818030080773	-49.41886390288344	0	0	0	-3.509900991880198	0	40.74739136649132	-3.132580124318455e-05	0	0
2.21	-1.663302150562651	-2.259405605058473	52.29857125617502	0	0.9400000009320483	0	20.90718031840351	-8.542572180990327	0	29.19785322878926	0.5095986733564297	-4.691801167894011	0	0	20.90718031840351	-8.542572180990327	0	29.19785322878926	0.5095986733564297	-4.691801167894011	0	0	2.741529067653689	4.250743096067126	-28.50225007598069	71.60407195008996	-3.759268911504913	50.09527643883682	0.002405921621076131	-49.40060423826133	0	0	0	-3.512122863176671	0	40.76553790155496	-3.134495486008174e-05	0	0
2.22	-1.488235347396697	-3.241238721339487	50.83993168569238	0	0.9400000009320483	0	20.9142525513748	-8.543910401618366	0	29.20649836921969	0.5097495595212381	-4.692169515080185	0	0	20.9142525513748	-8.543910401618366	0	29.20649836921969	0.5097495595212381	-4.692169515080185	0	0	3.288790478347175	5.07164018759795	-27.07466128276046	71.50891449682435	-4.136316697181454	50.37072408149854	0.002370321304870273	-49.38769571846082	0	0	0	-3.513697421217197	0	40.77836664338412	-3.135851970530549e-05	0	0
2.23	-1.704332852047977	-2.589922339191303	50.06600028407335	0	0.9400000009320483	0	20.9235309404772	-8.545672314850153	0	29.21781131783767	0.5099470077227307	-4.692654788526903	0	0	20.9235309404772	-8.545672314850153	0	29.21781131783767	0.5099470077227307	-4.692654788526903	0	0	3.416230101439599	3.832045473448512	-26.70257281283391	70.58093899380502	-4.113853501820908	50.31145857561679	0.002346419841811936	-49.37075312030785	0	0	0	-3.515755710872265	0	40.7952041864311	-3.137627383801434e-05	0	0
2.24	-1.299318046870491	-3.414430505989285	49.53935741312988	0	0.9400000009320483	0	20.9312013526736	-8.547129283105576	0	29.22715771207191	0.5101101330753076	-4.693056034987808	0	0	20.9312013526736	-8.547129283105576	0	29.22715771207191	0.5101101330753076	-4.693056034987808	0	0	3.197327417860626	4.146892960304475	-26.80185875363109	70.6647984824634	-4.089181769247247	49.88656637176349	0.002356069396046668	-49.3567470314844	0	0	0	-3.517456367601282	0	40.80912341192924	-3.139094624955461e-05	0	0
2.25	-2.377703159228147	-3.156565210456615	48.28683962057801	0	0.9400000009320483	0	20.93809331187715	-8.548434169614662	0	29.23556698999138	0.5102569026627176	-4.69341507317253	0	0	20.93809331187715	-8.548434169614662	0	29.23556698999138	0.5102569026627176	-4.69341507317253	0	0	3.916369806546661	2.912982049121125	-25.75354020233369	70.03749301339302	-4.847625285239531	49.62634968294978	0.002357107636751309	-49.34416847514021	0	0	0	-3.518988395061251	0	40.82162419388296	-3.140415288156595e-05	0	0
2.26	-1.751951858881398	-2.926358109922895	47.84686213493766	0	0.9400000009320483	0	20.944296417183	-8.549609018098474	0	29.2431313118692	0.5103889249851663	-4.693738312456973	0	0	20.944296417183	-8.549609018098474	0	29.2431313118692	0.5103889249851663	-4.693738312456973	0	0	3.599426285553823	2.901122303813324	-25.52490968364334	69.30914236363526	-5.244457895952594	49.45610747288889	0.002331939673370067	-49.33284713121471	0	0	0	-3.520366517851049	0	40.83287551768038	-3.141603534196202e-05	0	0
2.27	-1.374858889190488	-3.750100724303317	47.30078104943416	0	0.9400000009320483	0	20.95273350381777	-8.551204150246082	0	29.25342529311542	0.5105685888510513	-4.694176937478749	0	0	20.95273350381777	-8.551204150246082	0	29.25342529311542	0.5105685888510513	-4.694176937478749	0	0	3.915718123720793	3.764634383965354	-25.00339353844648	69.19509917111432	-5.391567819055744	49.80388274505079	0.002301240007958347	-49.3174530308192	0	0	0	-3.522243391315508	0	40.84817457017334	-3.143221166889044e-05	0	0
